<?xml version="1.0" encoding="utf-8"?>
<!-- Generator: Adobe Illustrator 21.0.0, SVG Export Plug-In . SVG Version: 6.00 Build 0)  -->
<svg version="1.1" xmlns="http://www.w3.org/2000/svg" xmlns:xlink="http://www.w3.org/1999/xlink" x="0px" y="0px"
	 viewBox="0 0 125 40" enable-background="new 0 0 125 40" xml:space="preserve">
<g id="bg" display="none">
	<rect display="inline" fill="#FFFFFF" width="125" height="40"/>
</g>
<g id="icons">
	<g>
		<linearGradient id="SVGID_2_" gradientUnits="userSpaceOnUse" x1="54.1907" y1="31.1223" x2="66.5744" y2="31.1223">
			<stop  offset="0" style="stop-color:#00BAF1"/>
			<stop  offset="1" style="stop-color:#00C8FE"/>
		</linearGradient>
		<path fill="url(#SVGID_2_)" d="M66.347,25.996c-0.206-0.27-0.492-0.407-0.812-0.484c-0.906-0.217-1.817-0.41-2.751-0.454
			c-0.371-0.017-0.742-0.013-1.113-0.018c-0.082-0.001-0.164-0.002-0.246-0.002c-0.694,0.005-1.383,0.079-2.067,0.191
			c-0.695,0.114-1.379,0.275-2.052,0.484c-0.78,0.243-1.539,0.538-2.229,0.984c-0.264,0.171-0.512,0.369-0.755,0.57
			c-0.122,0.101-0.163,0.249-0.106,0.409c0.06,0.166,0.173,0.27,0.353,0.285c0.088,0.007,0.177,0.001,0.265-0.006
			c0.143-0.012,0.286-0.031,0.43-0.046c0.562-0.059,1.124-0.12,1.686-0.177c0.744-0.075,1.488-0.153,2.237-0.161
			c0.199-0.002,0.397-0.014,0.596-0.021c0.281,0,0.561,0,0.841-0.001c0.304,0.021,0.607,0.041,0.911,0.062
			c0.114,0.021,0.227,0.043,0.341,0.064c0.333,0.062,0.664,0.134,0.97,0.286c0.432,0.214,0.663,0.562,0.659,1.049
			c-0.006,0.723-0.082,1.439-0.251,2.143c-0.289,1.204-0.665,2.381-1.112,3.535c-0.214,0.553-0.44,1.102-0.661,1.652
			c-0.087,0.218-0.117,0.439-0.039,0.665c0.042,0.122,0.124,0.187,0.258,0.198c0.219,0.018,0.401-0.041,0.554-0.205
			c0.159-0.17,0.322-0.338,0.495-0.494c0.685-0.621,1.225-1.357,1.703-2.142c0.67-1.1,1.185-2.269,1.547-3.505
			c0.23-0.783,0.41-1.577,0.503-2.389c0.038-0.33,0.049-0.663,0.073-0.994c0-0.3,0.001-0.599,0.001-0.899
			C66.552,26.361,66.478,26.168,66.347,25.996z"/>
		<linearGradient id="SVGID_4_" gradientUnits="userSpaceOnUse" x1="55.7962" y1="11.6251" x2="65.9448" y2="11.6251">
			<stop  offset="0" style="stop-color:#00BCF3"/>
			<stop  offset="1" style="stop-color:#00C7FD"/>
		</linearGradient>
		<path fill="url(#SVGID_4_)" d="M56.552,15.585c0.484,1.188,1.271,2.098,2.443,2.651c0.285,0.134,0.569,0.272,0.878,0.347
			l0.01,0.011c0,0,0.014-0.003,0.014-0.003c0.1,0.032,0.199,0.063,0.299,0.095c0.013,0.005,0.026,0.011,0.039,0.016
			c0.039,0.007,0.079,0.015,0.118,0.022c0.051,0.016,0.101,0.033,0.152,0.049c0.022,0.004,0.043,0.008,0.065,0.013
			c0.023,0.006,0.046,0.013,0.068,0.019c0.022,0.004,0.044,0.008,0.065,0.012c0.31,0.053,0.618,0.125,0.93,0.155
			c0.541,0.051,1.084,0.042,1.625-0.025c0.735-0.091,1.447-0.271,2.137-0.538c0.418-0.162,0.642-0.635,0.512-1.06
			c-0.115-0.379-0.248-0.459-0.626-0.347c-0.715,0.211-1.44,0.353-2.185,0.399c-0.499,0.031-0.997,0.024-1.493-0.038
			c-0.291-0.036-0.578-0.095-0.867-0.144c-0.051-0.013-0.101-0.026-0.152-0.04c-0.015-0.006-0.03-0.013-0.046-0.019
			c-0.013-0.003-0.025-0.006-0.038-0.009l-0.009-0.011c0,0-0.013,0.004-0.013,0.004c-0.114-0.042-0.229-0.084-0.343-0.126
			c-0.01-0.002-0.019-0.006-0.027-0.014c-0.155-0.09-0.325-0.151-0.476-0.251c-0.26-0.172-0.509-0.355-0.724-0.582
			c-0.434-0.456-0.711-1-0.9-1.593c-0.147-0.461-0.233-0.936-0.286-1.415c-0.055-0.495-0.107-0.992-0.14-1.489
			c-0.032-0.471,0.004-0.942,0.062-1.41c0.084-0.684,0.236-1.352,0.491-1.996c0.298-0.752,0.774-1.356,1.476-1.764
			c0.262-0.152,0.55-0.258,0.827-0.386l0,0c0.368-0.079,0.734-0.171,1.104-0.235c0.711-0.123,1.425-0.116,2.137-0.004
			c0.487,0.077,0.971,0.175,1.457,0.261c0.081,0.014,0.165,0.022,0.248,0.021c0.206-0.002,0.335-0.098,0.387-0.298
			c0.055-0.207,0.055-0.418-0.006-0.625c-0.049-0.165-0.144-0.304-0.296-0.388c-0.13-0.072-0.267-0.137-0.408-0.183
			c-1.144-0.373-2.314-0.51-3.512-0.367c-0.285,0.034-0.565,0.1-0.848,0.152c-0.044,0.008-0.089,0.016-0.133,0.024
			c-0.014,0.005-0.028,0.01-0.042,0.015c-0.03,0.006-0.061,0.012-0.091,0.017c-0.014,0.005-0.028,0.011-0.042,0.016
			c-0.076,0.02-0.153,0.041-0.229,0.061c-0.008,0.005-0.018,0.008-0.027,0.009c-0.023,0.005-0.045,0.01-0.068,0.014
			c-0.013,0.006-0.026,0.011-0.039,0.017c-0.02,0.005-0.04,0.01-0.061,0.015c-0.013,0.006-0.027,0.012-0.04,0.019
			c-0.017,0.001-0.034-0.001-0.049,0.004c-0.495,0.156-0.961,0.374-1.388,0.67c-0.985,0.682-1.667,1.603-2.081,2.718
			c-0.385,1.038-0.552,2.122-0.603,3.224c-0.032,0.694,0.002,1.387,0.114,2.073C56.046,14.118,56.258,14.863,56.552,15.585z"/>
		<linearGradient id="SVGID_6_" gradientUnits="userSpaceOnUse" x1="1.0186" y1="11.4638" x2="21.1445" y2="11.4638">
			<stop  offset="0" style="stop-color:#0178BF"/>
			<stop  offset="1" style="stop-color:#0091D1"/>
		</linearGradient>
		<path fill="url(#SVGID_6_)" d="M1.028,18.223c0.028,0.223,0.159,0.36,0.38,0.401c0.27,0.049,0.541,0.046,0.813,0.017
			c0.063-0.007,0.137-0.027,0.183-0.067c0.155-0.135,0.262-0.298,0.261-0.517C2.662,17.418,2.66,16.78,2.66,16.142
			c-0.002-2.303-0.003-4.606-0.005-6.909c0-0.25-0.006-0.499-0.005-0.749c0-0.233-0.004-0.466,0.009-0.699
			c0.017-0.303,0.154-0.54,0.423-0.692c0.237-0.134,0.474-0.267,0.712-0.4c0.007,0,0.014-0.001,0.022-0.001l0.007-0.003
			C3.836,6.68,3.85,6.672,3.864,6.663c0.165-0.083,0.33-0.167,0.494-0.25c0.01-0.006,0.02-0.012,0.03-0.018
			C4.399,6.39,4.41,6.386,4.421,6.382C4.452,6.37,4.483,6.359,4.513,6.347c0.26-0.108,0.515-0.237,0.783-0.319
			c0.358-0.11,0.728-0.185,1.093-0.275c0.055-0.008,0.11-0.016,0.165-0.024c0.023-0.002,0.045-0.004,0.068-0.007
			c0.1-0.009,0.199-0.018,0.299-0.027C6.907,5.69,6.894,5.686,6.881,5.683C6.894,5.686,6.907,5.69,6.92,5.695
			c0.321,0,0.643,0.001,0.964,0.001c0.166,0.018,0.332,0.037,0.498,0.055c0.023,0.004,0.046,0.007,0.069,0.011
			c0.021,0.006,0.042,0.012,0.063,0.017c0.024,0.005,0.048,0.01,0.072,0.016l0.011,0.01c0,0,0.014-0.004,0.014-0.004
			C8.636,5.81,8.662,5.819,8.688,5.827c0.02,0.008,0.04,0.015,0.06,0.023c0.012,0.004,0.025,0.008,0.037,0.012
			c0.009,0.005,0.018,0.01,0.028,0.014C8.88,5.905,8.946,5.934,9.012,5.964c0.031,0.023,0.061,0.047,0.093,0.067
			c0.332,0.203,0.583,0.48,0.735,0.837c0.073,0.172,0.122,0.356,0.166,0.539c0.12,0.503,0.205,1.012,0.214,1.53
			c0.011,0.627,0.018,1.254,0.019,1.881c0.002,2.203,0.001,4.407,0,6.61c0,0.155-0.003,0.311-0.015,0.465
			c-0.024,0.296,0.114,0.524,0.296,0.734c0.031,0.036,0.079,0.062,0.123,0.082c0.53,0.238,1.102-0.06,1.212-0.632
			c0.017-0.087,0.023-0.176,0.024-0.264c0.005-1.221,0.009-2.442,0.01-3.663c0.001-1.16-0.001-2.32-0.005-3.48
			c-0.001-0.399-0.012-0.799-0.018-1.198c-0.006-0.41-0.022-0.821-0.011-1.231c0.011-0.41,0.135-0.786,0.427-1.09
			c0.179-0.186,0.393-0.325,0.622-0.441c0.183-0.093,0.367-0.183,0.55-0.274l0.014,0.002l0.009-0.012
			c0.013-0.005,0.027-0.009,0.04-0.014c0.011-0.006,0.021-0.012,0.032-0.018c0.011-0.004,0.022-0.008,0.034-0.012
			c0.013-0.006,0.026-0.013,0.039-0.019c0.022-0.009,0.044-0.018,0.066-0.027l0.014,0.002l0.009-0.011
			c0.035-0.013,0.07-0.027,0.105-0.04c0.021-0.009,0.042-0.017,0.063-0.026c0.012-0.004,0.025-0.008,0.037-0.012
			c0.011-0.006,0.023-0.012,0.034-0.018c0,0,0,0.001,0,0.001l0,0l0,0l0,0c0.022-0.004,0.045-0.004,0.065-0.012
			c0.796-0.294,1.616-0.476,2.466-0.51c0.558-0.023,1.11-0.013,1.633,0.218c0.004,0.013,0.012,0.017,0.024,0.013
			c0.014,0.007,0.028,0.014,0.042,0.021c0.01,0.002,0.019,0.007,0.026,0.014c0.013,0.007,0.026,0.013,0.038,0.02
			c0.01,0.007,0.02,0.014,0.031,0.02c0.01,0.005,0.02,0.01,0.03,0.015c0.065,0.051,0.131,0.1,0.196,0.152
			c0.359,0.285,0.614,0.643,0.719,1.091c0.15,0.638,0.238,1.287,0.251,1.943c0.012,0.621,0.011,1.243,0.012,1.864
			c0.001,2.297,0,4.595,0.001,6.892c0,0.088,0.005,0.178,0.02,0.265c0.034,0.198,0.149,0.338,0.342,0.391
			c0.298,0.083,0.604,0.091,0.905,0.021c0.235-0.055,0.364-0.222,0.388-0.464c0.006-0.061,0.006-0.122,0.006-0.183
			c-0.001-3.246-0.002-6.492-0.006-9.739c0-0.411-0.045-0.82-0.133-1.222c-0.161-0.741-0.459-1.413-1.018-1.945
			c-0.419-0.399-0.912-0.662-1.479-0.785c-0.022-0.005-0.045-0.01-0.067-0.016c-0.032-0.008-0.065-0.017-0.097-0.025
			c-0.444-0.109-0.897-0.138-1.352-0.135c-0.708,0.005-1.403,0.11-2.076,0.33c-0.351,0.115-0.691,0.264-1.036,0.398
			c-0.013,0.004-0.025,0.009-0.038,0.013c-0.01,0.006-0.019,0.011-0.029,0.017c0,0-0.001,0.001-0.001,0.001
			c-0.022,0.011-0.044,0.022-0.066,0.032c-0.036,0.013-0.074,0.022-0.107,0.04c-0.374,0.205-0.749,0.409-1.12,0.618
			c-0.232,0.13-0.456,0.274-0.688,0.404c-0.22,0.124-0.327,0.104-0.494-0.088c-0.098-0.113-0.179-0.24-0.278-0.352
			c-0.176-0.199-0.345-0.407-0.542-0.583c-0.373-0.332-0.804-0.566-1.299-0.669C9.225,4.345,9.23,4.392,9.233,4.439
			C9.23,4.392,9.225,4.345,9.218,4.298c-0.037-0.012-0.072-0.031-0.11-0.035C8.751,4.223,8.394,4.165,8.036,4.15
			C7.089,4.112,6.172,4.285,5.285,4.611C5.037,4.703,4.799,4.822,4.557,4.929c-0.013,0.005-0.026,0.01-0.038,0.015
			c-0.01,0.006-0.02,0.012-0.03,0.017C4.365,5.022,4.242,5.082,4.119,5.143C4.11,5.149,4.1,5.155,4.091,5.162L4.088,5.163
			c-0.02,0.011-0.041,0.022-0.061,0.033c0,0-0.005,0.003-0.005,0.003C4.003,5.21,3.985,5.221,3.966,5.231
			c0,0-0.009,0.002-0.009,0.002L3.956,5.243C3.938,5.25,3.92,5.257,3.902,5.265c0,0-0.008-0.002-0.008-0.002L3.889,5.27
			C3.877,5.277,3.865,5.285,3.853,5.292C3.842,5.298,3.83,5.303,3.819,5.309C3.81,5.315,3.801,5.321,3.792,5.327
			c-0.127,0.075-0.253,0.15-0.38,0.225C3.238,5.654,3.067,5.763,2.887,5.853c-0.128,0.065-0.191,0.031-0.24-0.108
			C2.62,5.668,2.607,5.584,2.589,5.503C2.549,5.331,2.518,5.156,2.47,4.986C2.331,4.498,1.624,4.395,1.296,4.7
			C1.09,4.892,1.018,5.128,1.019,5.403C1.021,9.615,1.02,13.828,1.02,18.04C1.02,18.101,1.02,18.162,1.028,18.223z M6.843,5.678
			c-0.025-0.002-0.05,0-0.075,0.004C6.793,5.678,6.818,5.676,6.843,5.678z"/>
		<linearGradient id="SVGID_8_" gradientUnits="userSpaceOnUse" x1="24.6282" y1="11.8393" x2="35.8349" y2="11.8393">
			<stop  offset="0" style="stop-color:#0097D7"/>
			<stop  offset="1" style="stop-color:#02A2E0"/>
		</linearGradient>
		<path fill="url(#SVGID_8_)" d="M24.738,16.109c0.155,0.875,0.563,1.607,1.273,2.154c0.386,0.297,0.812,0.514,1.291,0.619
			c0.02,0.004,0.04,0.008,0.061,0.012c0.024,0.006,0.048,0.011,0.072,0.017c0.055,0.01,0.11,0.021,0.165,0.031
			c0.021,0.003,0.042,0.006,0.062,0.009c0.046,0.007,0.091,0.014,0.137,0.021c0.025,0.002,0.049,0.005,0.074,0.007
			c0.063,0.006,0.127,0.013,0.19,0.019c0.068,0.005,0.135,0.009,0.203,0.014c0.003-0.006,0.005-0.013,0.007-0.02
			c-0.002,0.007-0.005,0.014-0.007,0.02c0.588,0.07,1.173,0.026,1.756-0.053c0.773-0.105,1.516-0.323,2.225-0.649
			c0.301-0.138,0.588-0.305,0.882-0.459c0.199-0.12,0.397-0.241,0.597-0.36c0.086-0.051,0.171-0.103,0.261-0.146
			c0.162-0.076,0.239-0.043,0.282,0.128c0.029,0.118,0.042,0.24,0.061,0.36c0.02,0.126,0.031,0.254,0.061,0.377
			c0.052,0.219,0.192,0.371,0.415,0.404c0.19,0.028,0.387,0.037,0.578,0.019c0.226-0.022,0.374-0.163,0.416-0.392
			c0.023-0.125,0.033-0.253,0.033-0.38c0.002-3.307,0.002-6.615,0.001-9.922c0-0.893-0.003-1.787-0.006-2.68
			c0-0.083-0.001-0.167-0.015-0.249c-0.032-0.195-0.138-0.329-0.343-0.353c-0.17-0.019-0.342-0.029-0.513-0.03
			c-0.132,0-0.266,0.012-0.396,0.036c-0.168,0.031-0.279,0.135-0.305,0.31c-0.016,0.109-0.029,0.22-0.029,0.33
			c0,2.425,0.002,4.85,0.004,7.275c0.001,0.888-0.001,1.776,0.009,2.663c0.004,0.378-0.132,0.666-0.459,0.863
			c-0.199,0.12-0.393,0.248-0.589,0.373c-0.045,0.021-0.091,0.038-0.134,0.062c-0.595,0.324-1.216,0.586-1.87,0.766
			c-0.691,0.191-1.394,0.311-2.113,0.302c-0.215-0.003-0.429-0.034-0.644-0.052c-0.021-0.003-0.042-0.007-0.063-0.01
			c-0.021-0.005-0.043-0.01-0.064-0.015c-0.068-0.017-0.137-0.033-0.205-0.05c-0.033-0.01-0.066-0.019-0.098-0.029
			c-0.011-0.002-0.022-0.004-0.033-0.005c-0.011,0.001-0.023,0.001-0.034,0.002c-0.053-0.027-0.103-0.064-0.159-0.079
			c-0.217-0.056-0.391-0.176-0.566-0.314c-0.468-0.372-0.725-0.862-0.842-1.432c-0.121-0.594-0.158-1.199-0.163-1.804
			c-0.008-0.954-0.008-1.909-0.01-2.863c-0.001-0.721,0-1.443,0.001-2.164c0.001-1.188,0.003-2.375,0.002-3.563
			c0-0.093-0.016-0.188-0.036-0.28C26.13,4.796,26.029,4.7,25.874,4.664c-0.065-0.015-0.131-0.029-0.197-0.03
			c-0.205-0.003-0.411-0.006-0.616,0.005c-0.266,0.014-0.403,0.155-0.422,0.421c-0.01,0.144-0.011,0.288-0.011,0.433
			c0.001,3.002,0.001,6.005,0.005,9.007C24.634,15.038,24.643,15.578,24.738,16.109z"/>
		<g>
			<linearGradient id="SVGID_9_" gradientUnits="userSpaceOnUse" x1="50.6083" y1="1.2448" x2="53.0796" y2="1.2448">
				<stop  offset="0" style="stop-color:#00B6EF"/>
				<stop  offset="1" style="stop-color:#00B8F0"/>
			</linearGradient>
			<path fill="url(#SVGID_9_)" d="M52.019,0.032C51.982,0.026,51.948,0.011,51.912,0c-0.044,0-0.089,0-0.133,0
				c-0.041,0.012-0.081,0.027-0.123,0.035c-0.715,0.133-1.198,0.884-1.004,1.562c0.148,0.516,0.62,0.873,1.177,0.892
				c0.654,0.022,1.244-0.539,1.251-1.19C53.086,0.682,52.631,0.139,52.019,0.032z"/>
			<linearGradient id="SVGID_10_" gradientUnits="userSpaceOnUse" x1="51.0208" y1="11.6525" x2="52.6377" y2="11.6525">
				<stop  offset="0" style="stop-color:#00B6EF"/>
				<stop  offset="1" style="stop-color:#00B8F0"/>
			</linearGradient>
			<path fill="url(#SVGID_10_)" d="M52.637,5.538c0-0.155-0.01-0.31-0.024-0.465c-0.028-0.304-0.152-0.427-0.456-0.44
				c-0.205-0.009-0.411-0.007-0.615,0.001c-0.388,0.016-0.508,0.145-0.515,0.538c-0.004,0.2-0.005,0.399-0.006,0.599
				c0,1.942,0,3.885,0,5.827c0,2.114,0,4.229,0,6.343c0,0.072-0.001,0.145,0.01,0.216c0.045,0.298,0.182,0.438,0.479,0.495
				c0.262,0.05,0.518,0.024,0.772-0.053c0.14-0.043,0.237-0.127,0.267-0.269c0.036-0.167,0.074-0.337,0.078-0.506
				c0.012-0.527,0.01-1.054,0.01-1.581C52.638,12.674,52.638,9.106,52.637,5.538z"/>
		</g>
		<linearGradient id="SVGID_11_" gradientUnits="userSpaceOnUse" x1="0" y1="33.2124" x2="60.6342" y2="33.2124">
			<stop  offset="0" style="stop-color:#0279BF"/>
			<stop  offset="1" style="stop-color:#00C0F6"/>
		</linearGradient>
		<path fill="url(#SVGID_11_)" d="M60.256,30.24c-0.138-0.11-0.297-0.162-0.477-0.17c-0.248-0.011-0.47,0.079-0.689,0.169
			c-1.166,0.475-2.35,0.902-3.542,1.309c-0.293,0.1-0.582,0.212-0.873,0.319c0,0.054,0.001,0.109,0.001,0.163
			c0-0.054-0.001-0.109-0.001-0.163c-0.057,0.019-0.114,0.038-0.17,0.057c-0.01,0.004-0.02,0.009-0.03,0.013
			c-0.011,0.003-0.022,0.006-0.033,0.009c-0.016,0.007-0.032,0.014-0.048,0.021c-0.018,0.005-0.035,0.01-0.053,0.014
			c-0.015,0.006-0.029,0.013-0.044,0.019c-0.085,0.028-0.171,0.056-0.256,0.084c-0.012,0.006-0.025,0.012-0.037,0.018
			c-0.011-0.003-0.02,0-0.028,0.008c-0.017,0.008-0.034,0.016-0.05,0.023c-0.062,0.02-0.125,0.04-0.187,0.06
			c-0.01-0.001-0.018,0.003-0.023,0.012c-0.013,0.003-0.027,0.005-0.04,0.008c-0.015,0.007-0.03,0.013-0.044,0.02
			c-0.019,0.005-0.038,0.01-0.057,0.015c-0.026,0.009-0.052,0.018-0.078,0.028c-0.021,0.008-0.041,0.016-0.062,0.024l-0.011-0.004
			c0,0-0.008,0.01-0.008,0.01c-0.014,0.004-0.028,0.008-0.041,0.012c-0.012,0.006-0.025,0.012-0.037,0.017
			c-0.021,0.006-0.042,0.011-0.063,0.017c-0.012,0.006-0.024,0.011-0.035,0.017c-0.012-0.002-0.022,0-0.03,0.008
			c-0.03,0.01-0.06,0.02-0.091,0.029c-0.042,0.012-0.085,0.022-0.127,0.035c-0.888,0.273-1.775,0.547-2.663,0.819
			c-0.195,0.06-0.391,0.116-0.586,0.174c-0.034,0.008-0.068,0.017-0.102,0.025c-0.009,0.006-0.018,0.009-0.029,0.009
			c-0.105,0.023-0.211,0.043-0.314,0.07c-0.974,0.255-1.955,0.479-2.943,0.672c-0.249,0.049-0.497,0.103-0.745,0.155
			c-0.055,0.009-0.111,0.018-0.166,0.028c-0.01,0.005-0.02,0.007-0.031,0.007c-0.404,0.062-0.808,0.126-1.213,0.185
			c-0.679,0.098-1.358,0.192-2.038,0.286c-0.268,0.037-0.537,0.07-0.806,0.104c-0.001,0.027,0,0.054,0.001,0.081
			c-0.002-0.027-0.002-0.054-0.001-0.081c-0.039,0-0.078-0.004-0.116,0c-0.546,0.051-1.09,0.113-1.637,0.154
			c-1.021,0.077-2.044,0.134-3.069,0.146c-0.148,0.002-0.296,0.016-0.445,0.024c-0.061-0.002-0.122-0.006-0.183-0.006
			c-0.782,0.004-1.564,0.01-2.346,0.014c-0.288,0.002-0.576,0.002-0.864,0.002c-0.264-0.004-0.528-0.007-0.792-0.011
			c-0.277,0.001-0.554,0.003-0.831,0.001c0.277,0.002,0.554-0.001,0.831-0.001c-0.313-0.009-0.625-0.018-0.938-0.027
			c-0.065-0.002-0.13-0.004-0.196-0.006c-0.167-0.008-0.335-0.016-0.502-0.024c-0.104-0.008-0.208-0.019-0.312-0.024
			c-0.384-0.018-0.768-0.034-1.152-0.051h0c-0.032-0.007-0.064-0.018-0.096-0.021c-0.475-0.037-0.95-0.066-1.424-0.112
			c-0.661-0.064-1.321-0.138-1.981-0.215c-0.434-0.051-0.866-0.115-1.299-0.173c-0.022-0.003-0.045-0.006-0.067-0.009
			c-0.066-0.01-0.132-0.02-0.198-0.03c-0.021-0.003-0.041-0.006-0.062-0.008c-0.046-0.008-0.092-0.016-0.138-0.024
			c-0.037-0.01-0.074-0.021-0.112-0.028c-1.019-0.182-2.038-0.363-3.056-0.547c-0.266-0.048-0.531-0.105-0.797-0.158
			c-0.02-0.003-0.04-0.006-0.06-0.009c-0.035-0.008-0.07-0.017-0.105-0.026c-0.01-0.002-0.021-0.004-0.031-0.007
			c-0.034-0.008-0.067-0.015-0.101-0.023c-0.4-0.092-0.8-0.181-1.199-0.275c-0.917-0.216-1.833-0.433-2.75-0.651
			c-0.15-0.036-0.3-0.076-0.45-0.114c-0.17-0.036-0.327-0.108-0.491-0.163c-1.172-0.392-2.337-0.801-3.472-1.295
			c-0.39-0.17-0.798-0.299-1.197-0.447c-0.013-0.009-0.026-0.02-0.041-0.027c-0.718-0.319-1.439-0.63-2.152-0.96
			c-0.793-0.367-1.579-0.751-2.368-1.127c-0.079-0.038-0.16-0.073-0.24-0.109c-0.185-0.101-0.372-0.197-0.553-0.303
			c-0.414-0.242-0.818-0.5-1.238-0.731c-0.398-0.219-0.806-0.421-1.217-0.615c-0.366-0.173-0.737-0.335-1.114-0.481
			c-0.34-0.132-0.592-0.017-0.754,0.311c-0.01,0.02-0.019,0.04-0.029,0.06c-0.046,0.196,0.024,0.362,0.145,0.507
			c0.164,0.195,0.33,0.388,0.508,0.57c0.557,0.572,1.152,1.103,1.774,1.604c0.315,0.253,0.64,0.495,0.96,0.741l0.004,0.013
			c0,0,0.013,0,0.013,0c0.04,0.03,0.08,0.06,0.119,0.09l0.003,0.011c0,0,0.011-0.001,0.011-0.001
			c0.026,0.018,0.051,0.037,0.077,0.056c0.009,0.007,0.017,0.014,0.026,0.021c0.038,0.027,0.076,0.053,0.113,0.08l0.005,0.013
			c0,0,0.014,0.002,0.014,0.002c0.069,0.05,0.139,0.099,0.208,0.149c0.009,0.007,0.017,0.014,0.026,0.021
			c0.04,0.027,0.079,0.055,0.119,0.082l0.001,0.01c0,0,0.009-0.003,0.009-0.003c0.06,0.041,0.12,0.082,0.18,0.122
			c0.01,0.004,0.017,0.01,0.023,0.018c0.057,0.039,0.114,0.077,0.172,0.116c0.01,0.007,0.019,0.014,0.029,0.022
			c0.027,0.018,0.054,0.036,0.081,0.054c0.186,0.129,0.369,0.263,0.558,0.388c1.036,0.683,2.096,1.327,3.176,1.937
			c0.303,0.171,0.613,0.331,0.919,0.496c0.009,0.006,0.018,0.011,0.026,0.017c-0.003-0.004-0.007-0.008-0.012-0.011
			c0.004,0.003,0.008,0.006,0.012,0.011c0.065,0.035,0.129,0.069,0.194,0.104c0.308,0.162,0.615,0.327,0.925,0.486
			c1.099,0.564,2.223,1.075,3.365,1.545c0.276,0.113,0.557,0.212,0.836,0.318c0.014,0.007,0.028,0.013,0.042,0.02
			c0.012,0.003,0.023,0.007,0.035,0.01c0.029,0.015,0.056,0.034,0.087,0.046c1.254,0.485,2.521,0.932,3.804,1.334
			c0.221,0.069,0.446,0.128,0.669,0.191c0.083,0.029,0.165,0.062,0.249,0.086c1.097,0.311,2.201,0.598,3.318,0.827
			c0.265,0.055,0.532,0.101,0.799,0.151c0.059,0.015,0.117,0.033,0.176,0.044c1.175,0.219,2.357,0.401,3.544,0.539
			c0.28,0.033,0.561,0.054,0.842,0.08c0.054,0.006,0.109,0.013,0.163,0.019c0.022,0.001,0.044,0.002,0.066,0.003
			c0.071,0.011,0.142,0.026,0.213,0.031c0.609,0.043,1.217,0.091,1.826,0.124c0.52,0.028,1.042,0.044,1.563,0.055
			c0.31,0.007,0.621-0.004,0.931-0.007c0.226-0.002,0.451,0,0.677-0.005c0.418-0.01,0.837-0.025,1.255-0.038
			c0.046-0.002,0.092-0.003,0.138-0.005c0.265-0.015,0.529-0.029,0.794-0.044c0.021-0.001,0.043-0.002,0.064-0.004
			c0.21-0.017,0.42-0.033,0.631-0.05c0.025-0.002,0.051-0.004,0.076-0.005c0.072-0.005,0.144-0.011,0.216-0.016
			c0.067-0.008,0.134-0.015,0.201-0.023c-0.007-0.003-0.009-0.007-0.008-0.014c-0.003-0.191-0.008-0.382-0.01-0.573
			c0.002,0.191,0.007,0.382,0.01,0.573c0.139-0.006,0.279-0.013,0.418-0.019c0.03-0.003,0.06-0.005,0.09-0.008
			c0.221-0.023,0.443-0.046,0.664-0.069c0.054-0.008,0.108-0.016,0.162-0.023c0.105-0.011,0.211-0.022,0.316-0.033
			c0.029-0.003,0.059-0.005,0.088-0.008c0.189-0.024,0.379-0.048,0.568-0.071c0.035-0.006,0.07-0.013,0.105-0.019
			c0.102-0.012,0.204-0.023,0.305-0.035c0.019-0.002,0.039-0.005,0.058-0.007c0.166-0.023,0.331-0.047,0.497-0.07
			c0.042-0.008,0.084-0.015,0.126-0.023c0.084-0.011,0.168-0.022,0.252-0.033c0.018-0.002,0.037-0.005,0.055-0.007
			c0.025-0.006,0.05-0.011,0.076-0.017c0.035-0.004,0.07-0.008,0.105-0.012c0.084-0.013,0.168-0.026,0.251-0.039
			c0.044-0.008,0.088-0.016,0.131-0.024l-0.006-0.014c0.171-0.023,0.342-0.047,0.513-0.07c0.03-0.005,0.061-0.011,0.092-0.016
			c0.023-0.003,0.047-0.006,0.07-0.009c0.034-0.008,0.068-0.015,0.102-0.023c0.058-0.01,0.116-0.019,0.174-0.029
			c0.031-0.004,0.061-0.008,0.092-0.013c0.079-0.016,0.159-0.031,0.238-0.047c0.027-0.005,0.055-0.009,0.082-0.014
			c0.015-0.002,0.029-0.004,0.044-0.006c0.034-0.008,0.069-0.016,0.103-0.025c0.058-0.01,0.116-0.021,0.174-0.031
			c0.021-0.003,0.042-0.006,0.064-0.009c0.065-0.014,0.13-0.028,0.195-0.042c0.038-0.007,0.077-0.014,0.115-0.021
			c0.017-0.003,0.033-0.006,0.05-0.008c0.031-0.008,0.062-0.015,0.092-0.023c0.05-0.01,0.1-0.02,0.15-0.03
			c0.021-0.003,0.042-0.006,0.062-0.009c0.023-0.007,0.047-0.013,0.07-0.02c0.024-0.003,0.047-0.007,0.071-0.01
			c0.019-0.005,0.039-0.009,0.058-0.014c0.028-0.006,0.056-0.012,0.084-0.017c0.015-0.003,0.029-0.005,0.044-0.008
			c0.032-0.008,0.064-0.016,0.096-0.024c0.049-0.01,0.098-0.02,0.147-0.03c0.019-0.004,0.039-0.007,0.058-0.011
			c0.025-0.007,0.05-0.013,0.075-0.02c0.022-0.004,0.043-0.007,0.065-0.011c0.01-0.003,0.02-0.005,0.03-0.008
			c0.029-0.007,0.059-0.014,0.088-0.02c0.013-0.002,0.026-0.004,0.039-0.006c0.057-0.017,0.114-0.037,0.172-0.051
			c0.159-0.041,0.318-0.08,0.476-0.12c0.025-0.007,0.051-0.014,0.076-0.021c0.088-0.02,0.175-0.041,0.262-0.062
			c0.009-0.005,0.019-0.008,0.029-0.008c0.022-0.004,0.044-0.008,0.066-0.013c0.022-0.002,0.044-0.002,0.065-0.008
			c0.682-0.189,1.365-0.372,2.044-0.57c0.488-0.142,0.97-0.304,1.455-0.456c0.02-0.007,0.04-0.014,0.06-0.021
			c0.013-0.004,0.026-0.007,0.039-0.011c0.014-0.006,0.028-0.012,0.042-0.018c0.065-0.02,0.13-0.041,0.196-0.061
			c0.008-0.005,0.017-0.008,0.027-0.009c0.023-0.006,0.047-0.012,0.07-0.018c0.01-0.005,0.02-0.009,0.03-0.014c0,0,0,0,0,0
			c0.032-0.006,0.066-0.009,0.097-0.019c1.245-0.414,2.477-0.861,3.667-1.418c0.346-0.161,0.687-0.332,1.03-0.499
			c0.026-0.008,0.054-0.014,0.078-0.026c0.487-0.242,0.979-0.473,1.458-0.729c1.2-0.643,2.329-1.401,3.429-2.199
			c0.318-0.231,0.613-0.494,0.916-0.746c0.174-0.144,0.259-0.332,0.24-0.558C60.606,30.68,60.491,30.426,60.256,30.24z"/>
		<linearGradient id="SVGID_12_" gradientUnits="userSpaceOnUse" x1="38.7903" y1="11.6047" x2="48.4892" y2="11.6047">
			<stop  offset="0" style="stop-color:#00A7E3"/>
			<stop  offset="1" style="stop-color:#01B1EC"/>
		</linearGradient>
		<path fill="url(#SVGID_12_)" d="M39.097,18.196c0.221,0.113,0.451,0.213,0.684,0.297c0.654,0.237,1.328,0.4,2.019,0.479
			c0.817,0.093,1.638,0.092,2.459,0.037c0.176-0.012,0.351-0.045,0.526-0.069c0.038-0.003,0.077-0.002,0.115-0.009
			c0.683-0.126,1.325-0.362,1.908-0.743c1.054-0.689,1.61-1.665,1.676-2.922c0.021-0.401-0.024-0.796-0.107-1.188
			c-0.12-0.573-0.363-1.079-0.787-1.491c-0.313-0.304-0.666-0.556-1.059-0.739c-0.588-0.273-1.186-0.524-1.779-0.784
			c-0.02-0.009-0.043-0.008-0.065-0.011c-0.049-0.024-0.097-0.051-0.148-0.072c-0.564-0.233-1.131-0.457-1.691-0.698
			c-0.392-0.168-0.784-0.341-1.16-0.541c-0.949-0.505-1.31-1.593-0.955-2.519c0.295-0.769,0.863-1.248,1.656-1.456
			c0.251-0.066,0.511-0.1,0.766-0.149l0.015,0.004c0,0,0.015-0.006,0.015-0.006c0.024,0,0.048,0,0.072,0
			c0.187,0.001,0.373,0.001,0.56,0.002c0.101,0.004,0.201,0.008,0.302,0.012c0.054,0.008,0.108,0.02,0.163,0.024
			c0.6,0.047,1.185,0.158,1.752,0.365c0.405,0.148,0.829,0.204,1.257,0.211c0.258,0.004,0.399-0.102,0.47-0.34
			c0.069-0.232,0.08-0.47,0.019-0.706c-0.058-0.224-0.197-0.368-0.427-0.416c-0.798-0.165-1.594-0.335-2.394-0.491
			c-0.265-0.052-0.537-0.065-0.806-0.096c-0.11-0.007-0.22-0.014-0.331-0.021c-0.146,0-0.291,0-0.437,0
			c-0.113,0.008-0.227,0.016-0.34,0.024c-0.031,0.003-0.062,0.006-0.092,0.01c-0.072,0.004-0.145,0.002-0.215,0.013
			c-0.484,0.078-0.952,0.212-1.397,0.418c-0.502,0.232-0.973,0.515-1.346,0.929c-0.794,0.882-1.106,1.92-0.927,3.092
			c0.13,0.849,0.537,1.554,1.199,2.106c0.361,0.301,0.778,0.512,1.204,0.7c0.583,0.257,1.172,0.501,1.762,0.743
			c0.425,0.174,0.855,0.336,1.283,0.504c0.055,0.025,0.11,0.051,0.165,0.076c0.385,0.169,0.776,0.327,1.154,0.511
			c0.344,0.168,0.629,0.414,0.824,0.751c0.259,0.447,0.327,0.93,0.223,1.429c-0.195,0.939-0.742,1.578-1.661,1.882
			c-0.079,0.026-0.158,0.051-0.236,0.077c-0.024,0.008-0.049,0.016-0.073,0.024c-0.02,0.004-0.04,0.008-0.06,0.011
			c-0.043,0.007-0.087,0.012-0.13,0.021c-0.711,0.154-1.432,0.198-2.15,0.093c-0.597-0.088-1.187-0.222-1.779-0.346
			c-0.461-0.097-0.918-0.214-1.378-0.315c-0.261-0.057-0.496,0.084-0.565,0.34c-0.034,0.127-0.052,0.261-0.057,0.393
			C38.781,17.887,38.881,18.085,39.097,18.196z"/>
	</g>
</g>
</svg>
