<?xml version="1.0" encoding="utf-8"?>
<!-- Generator: Adobe Illustrator 21.1.0, SVG Export Plug-In . SVG Version: 6.00 Build 0)  -->
<svg version="1.1" xmlns="http://www.w3.org/2000/svg" xmlns:xlink="http://www.w3.org/1999/xlink" x="0px" y="0px"
	 viewBox="0 0 125 40" enable-background="new 0 0 125 40" xml:space="preserve">
<g id="bg" display="none">
	<rect display="inline" fill="#FFFFFF" width="125" height="40"/>
</g>
<g id="icons">
	<g>
		<g id="XMLID_16_">
			<g id="XMLID_59_">
				<g id="XMLID_33_">
					<g id="XMLID_1_">
						<g>
							<path fill="#FFFFFF" d="M116.542,24.706c-0.146-0.856-0.817-1.496-1.912-1.496c-1.28,0-2.128,1.071-2.128,2.76
								c0,1.727,0.855,2.769,2.144,2.769c1.033,0,1.712-0.517,1.897-1.458h1.604c-0.185,1.705-1.55,2.846-3.516,2.846
								c-2.313,0-3.825-1.581-3.825-4.157c0-2.522,1.511-4.157,3.809-4.157c2.082,0,3.377,1.312,3.516,2.892H116.542z"/>
						</g>
					</g>
				</g>
			</g>
		</g>
	</g>
	<g>
		<g id="Outline">
			<g id="_Group_">
				<path id="_Compound_Path_" fill="#A6A6A6" d="M116.469,2.094H8.536c-0.328,0-0.653,0-0.98,0.002
					C7.282,2.098,7.01,2.103,6.733,2.108c-0.601,0.007-1.201,0.06-1.794,0.158c-0.592,0.1-1.166,0.29-1.702,0.561
					c-0.535,0.274-1.024,0.63-1.449,1.055C1.361,4.306,1.005,4.796,0.733,5.334C0.461,5.87,0.273,6.445,0.174,7.038
					c-0.1,0.592-0.153,1.192-0.16,1.792C0.005,9.105,0.004,9.38,0,9.654v20.694c0.004,0.278,0.005,0.547,0.014,0.825
					c0.007,0.601,0.061,1.2,0.16,1.792c0.098,0.594,0.287,1.168,0.56,1.705c0.271,0.536,0.627,1.024,1.055,1.445
					c0.423,0.427,0.913,0.783,1.449,1.055c0.536,0.272,1.109,0.463,1.702,0.565c0.593,0.097,1.193,0.15,1.794,0.158
					c0.277,0.006,0.549,0.01,0.823,0.01c0.327,0.002,0.652,0.002,0.98,0.002h107.932c0.322,0,0.649,0,0.97-0.002
					c0.273,0,0.553-0.003,0.825-0.01c0.6-0.008,1.199-0.06,1.791-0.158c0.594-0.103,1.17-0.293,1.708-0.565
					c0.536-0.272,1.025-0.628,1.448-1.055c0.426-0.423,0.783-0.911,1.058-1.445c0.27-0.537,0.457-1.112,0.554-1.705
					c0.1-0.592,0.155-1.192,0.166-1.792c0.003-0.278,0.003-0.547,0.003-0.825C125,30.023,125,29.699,125,29.369V10.632
					c0-0.328,0-0.653-0.007-0.977c0-0.275,0-0.55-0.003-0.824c-0.011-0.601-0.066-1.2-0.166-1.792
					c-0.097-0.593-0.284-1.167-0.554-1.704c-0.553-1.077-1.429-1.954-2.506-2.507c-0.538-0.271-1.114-0.46-1.708-0.561
					c-0.592-0.099-1.191-0.152-1.791-0.158c-0.273-0.004-0.553-0.01-0.825-0.011C117.117,2.094,116.79,2.094,116.469,2.094
					L116.469,2.094z"/>
				<path id="_Path_" d="M116.469,2.831l0.966,0.002c0.22,0.001,0.444,0.005,0.665,0.009l0.147,0.002
					c0.564,0.007,1.126,0.056,1.682,0.148c0.521,0.089,1.026,0.254,1.499,0.491c0.938,0.482,1.702,1.245,2.184,2.183
					c0.238,0.475,0.403,0.983,0.488,1.507c0.092,0.551,0.143,1.108,0.154,1.667c0.003,0.271,0.003,0.544,0.004,0.831
					c0.007,0.319,0.007,0.639,0.007,0.962v18.737c0,0.325,0,0.643-0.007,0.979c0,0.275,0,0.541-0.003,0.8
					c-0.01,0.568-0.063,1.135-0.156,1.695c-0.084,0.518-0.247,1.02-0.482,1.489c-0.24,0.468-0.553,0.895-0.927,1.266
					c-0.367,0.371-0.792,0.68-1.258,0.917c-0.474,0.24-0.982,0.407-1.506,0.497c-0.554,0.091-1.114,0.14-1.676,0.147
					c-0.267,0.006-0.542,0.009-0.813,0.009c-0.32,0.002-0.646,0.002-0.966,0.002H8.536c-0.327,0-0.65,0-0.98-0.002
					c-0.269,0-0.535-0.003-0.802-0.009C6.19,37.15,5.627,37.101,5.07,37.011c-0.522-0.09-1.027-0.257-1.499-0.497
					c-0.469-0.238-0.897-0.55-1.266-0.924c-0.371-0.366-0.68-0.79-0.915-1.256c-0.239-0.472-0.404-0.978-0.49-1.501
					c-0.092-0.556-0.142-1.119-0.149-1.682c-0.006-0.186-0.008-0.367-0.01-0.55l-0.003-0.253V10.632l0-0.966L0.74,9.399
					c0.002-0.182,0.004-0.365,0.01-0.551C0.757,8.284,0.807,7.721,0.9,7.164c0.087-0.521,0.252-1.026,0.491-1.497
					C1.627,5.199,1.938,4.772,2.31,4.403c0.37-0.37,0.796-0.681,1.261-0.919c0.472-0.239,0.977-0.405,1.498-0.493
					C5.624,2.9,6.184,2.851,6.745,2.844l0.178-0.003C7.137,2.838,7.348,2.834,7.56,2.833l0.976-0.002L116.469,2.831"/>
				<g id="_Group_2">
					<path id="_Path_2" fill="#FFFFFF" d="M28.84,11.738c-0.553-1.312-1.663-2.307-3.027-2.715c-0.89-0.222-1.806-0.319-2.723-0.287
						H12.952c-0.917-0.032-1.833,0.064-2.723,0.287c-1.364,0.408-2.474,1.404-3.027,2.715c-0.343,1.028-0.494,2.11-0.446,3.193
						v10.138c-0.049,1.083,0.102,2.165,0.446,3.193c0.553,1.312,1.663,2.307,3.027,2.715c0.89,0.222,1.806,0.319,2.723,0.287H23.09
						c0.917,0.032,1.833-0.064,2.723-0.287c1.364-0.408,2.474-1.404,3.027-2.715c0.343-1.028,0.494-2.11,0.446-3.193V14.931
						C29.334,13.848,29.183,12.766,28.84,11.738z"/>
					<g id="_Group_4">
						<g>
							<path fill="#FFFFFF" d="M37.713,15.302h-3.325V9.97h0.828v4.571h2.498L37.713,15.302z"/>
							<path fill="#FFFFFF" d="M38.684,10.088c-0.017-0.284,0.2-0.527,0.483-0.544c0.284-0.017,0.527,0.2,0.544,0.483
								c0.017,0.284-0.2,0.527-0.483,0.544c-0.01,0.001-0.02,0.001-0.03,0.001c-0.27,0.014-0.499-0.194-0.513-0.464
								C38.684,10.102,38.684,10.095,38.684,10.088z M38.802,11.278h0.791v4.024h-0.791V11.278z"/>
							<path fill="#FFFFFF" d="M42.348,11.201c0.905,0,1.496,0.422,1.574,1.131h-0.761c-0.074-0.296-0.362-0.484-0.813-0.484
								c-0.444,0-0.78,0.211-0.78,0.524c0,0.241,0.204,0.392,0.639,0.491l0.669,0.155C43.641,13.196,44,13.524,44,14.115
								c0,0.758-0.706,1.264-1.667,1.264c-0.957,0-1.581-0.432-1.652-1.145h0.795c0.141,0.349,0.503,0.557,0.875,0.503
								c0.495,0,0.846-0.221,0.846-0.543c0-0.241-0.189-0.396-0.591-0.491l-0.702-0.162c-0.764-0.181-1.119-0.525-1.119-1.124
								C40.785,11.704,41.439,11.201,42.348,11.201z"/>
							<path fill="#FFFFFF" d="M46.123,10.277v1.02h0.872v0.669h-0.872v2.069c0,0.422,0.174,0.607,0.569,0.607
								c0.101,0,0.202-0.006,0.303-0.019v0.661c-0.143,0.026-0.287,0.04-0.432,0.041c-0.883,0-1.234-0.31-1.234-1.087v-2.272h-0.639
								v-0.669h0.639v-1.02H46.123z"/>
							<path fill="#FFFFFF" d="M51.407,14.215c-0.223,0.759-0.958,1.249-1.744,1.164c-1.009,0.027-1.848-0.769-1.875-1.778
								c-0.003-0.1,0.003-0.199,0.016-0.298c-0.136-1.016,0.577-1.95,1.593-2.086c0.087-0.012,0.174-0.017,0.262-0.016
								c1.12,0,1.796,0.765,1.796,2.028v0.277h-2.841v0.045c-0.049,0.585,0.385,1.099,0.97,1.149
								c0.034,0.003,0.068,0.004,0.102,0.004c0.388,0.046,0.766-0.147,0.957-0.488L51.407,14.215z M48.614,12.919h2.032
								c0.039-0.535-0.362-1-0.897-1.039c-0.031-0.002-0.062-0.003-0.093-0.002c-0.568-0.008-1.034,0.446-1.042,1.014
								C48.614,12.901,48.614,12.91,48.614,12.919z"/>
							<path fill="#FFFFFF" d="M52.529,11.278h0.765v0.639h0.059c0.206-0.471,0.689-0.758,1.201-0.717
								c0.721-0.054,1.349,0.486,1.403,1.207c0.007,0.096,0.004,0.193-0.01,0.289v2.605h-0.795v-2.406
								c0-0.646-0.281-0.967-0.868-0.967c-0.509-0.024-0.941,0.37-0.965,0.878c-0.002,0.047-0.001,0.094,0.004,0.141v2.353h-0.795
								V11.278z"/>
							<path fill="#FFFFFF" d="M59.171,13.288c-0.004-0.294,0.04-0.586,0.129-0.866c0.37-0.977,1.462-1.468,2.439-1.098
								c0.504,0.191,0.902,0.588,1.095,1.091c0.091,0.282,0.135,0.577,0.132,0.873c0.102,1.048-0.665,1.98-1.713,2.082
								c-1.048,0.102-1.98-0.665-2.082-1.713C59.159,13.535,59.159,13.411,59.171,13.288L59.171,13.288z M62.149,13.288
								c0.011-0.3-0.053-0.597-0.184-0.867c-0.288-0.495-0.922-0.662-1.417-0.374c-0.155,0.09-0.284,0.219-0.374,0.374
								c-0.131,0.27-0.194,0.567-0.183,0.867c0,0.88,0.388,1.386,1.079,1.386C61.757,14.674,62.149,14.164,62.149,13.288
								L62.149,13.288z"/>
							<path fill="#FFFFFF" d="M64.04,11.278h0.765v0.639h0.059c0.206-0.471,0.689-0.758,1.201-0.717
								c0.721-0.054,1.349,0.486,1.403,1.207c0.007,0.096,0.004,0.193-0.01,0.289v2.605h-0.795v-2.406
								c0-0.646-0.281-0.967-0.868-0.967c-0.509-0.024-0.941,0.37-0.965,0.878c-0.002,0.047-0.001,0.094,0.004,0.141v2.353H64.04
								V11.278z"/>
						</g>
						<g id="_Group_5">
							<g>
								<path fill="#FFFFFF" d="M41.217,27.019h-4.241l-1.018,3.007h-1.797L38.179,18.9h1.866l4.017,11.126h-1.827L41.217,27.019z
									 M37.416,25.631h3.362l-1.658-4.88h-0.046L37.416,25.631z"/>
								<path fill="#FFFFFF" d="M52.729,25.971c0,2.522-1.349,4.14-3.385,4.14c-1.052,0.056-2.044-0.495-2.552-1.419h-0.039v4.018
									h-1.666V21.915h1.612v1.349h0.031c0.531-0.917,1.524-1.468,2.583-1.433C51.372,21.831,52.729,23.457,52.729,25.971z
									 M51.017,25.971c0-1.642-0.848-2.721-2.144-2.721c-1.272,0-2.128,1.102-2.128,2.721c0,1.635,0.856,2.73,2.128,2.73
									C50.169,28.7,51.017,27.629,51.017,25.971L51.017,25.971z"/>
								<path fill="#FFFFFF" d="M61.651,25.971c0,2.522-1.349,4.14-3.385,4.14c-1.052,0.056-2.044-0.495-2.552-1.419h-0.039v4.018
									h-1.666V21.915h1.612v1.349h0.031c0.531-0.917,1.524-1.468,2.583-1.433C60.294,21.831,61.651,23.457,61.651,25.971z
									 M59.939,25.971c0-1.642-0.848-2.721-2.144-2.721c-1.272,0-2.128,1.102-2.128,2.721c0,1.635,0.856,2.73,2.128,2.73
									C59.091,28.7,59.939,27.629,59.939,25.971L59.939,25.971z"/>
								<path fill="#FFFFFF" d="M62.992,18.9h1.666v11.126h-1.666V18.9z"/>
								<path fill="#FFFFFF" d="M73.325,27.643c-0.378,1.586-1.871,2.647-3.494,2.484c-2.359,0-3.824-1.581-3.824-4.119
									c0-2.544,1.473-4.195,3.755-4.195c2.243,0,3.655,1.542,3.655,4.002v0.571h-5.729v0.101c-0.103,1.162,0.755,2.187,1.917,2.29
									c0.088,0.008,0.177,0.01,0.265,0.007c0.808,0.076,1.57-0.388,1.873-1.141L73.325,27.643z M67.696,25.223h4.056
									c0.06-1.076-0.764-1.997-1.84-2.057c-0.05-0.003-0.1-0.004-0.15-0.003c-1.134-0.007-2.059,0.907-2.066,2.041
									C67.696,25.211,67.696,25.217,67.696,25.223z"/>
								<path fill="#FFFFFF" d="M87.782,30.027v-8.189h-0.053l-3.355,8.105h-1.28l-3.362-8.105h-0.053v8.189h-1.573V18.9h1.997
									l3.6,8.782h0.062l3.594-8.782h2.005v11.126H87.782z"/>
								<path fill="#FFFFFF" d="M98.232,30.027h-1.597V28.63h-0.038c-0.439,0.978-1.446,1.574-2.515,1.489
									c-1.491,0.086-2.77-1.052-2.857-2.544c-0.009-0.152-0.005-0.305,0.012-0.456v-5.204h1.666v4.881
									c0,1.234,0.586,1.889,1.734,1.889c1.038,0.034,1.906-0.779,1.94-1.817c0.003-0.094-0.001-0.187-0.012-0.281v-4.673h1.666
									L98.232,30.027z"/>
								<path fill="#FFFFFF" d="M102.967,21.822c1.797,0,3.084,0.995,3.123,2.428h-1.566c-0.069-0.717-0.679-1.156-1.604-1.156
									c-0.902,0-1.504,0.415-1.504,1.049c0,0.485,0.401,0.809,1.242,1.018l1.365,0.316c1.635,0.394,2.252,0.994,2.252,2.183
									c0,1.464-1.388,2.467-3.37,2.467c-1.912,0-3.199-0.98-3.323-2.46h1.649c0.116,0.778,0.74,1.196,1.751,1.196
									c0.994,0,1.619-0.409,1.619-1.057c0-0.502-0.308-0.771-1.157-0.987l-1.45-0.355c-1.465-0.355-2.205-1.103-2.205-2.228
									C99.79,22.801,101.078,21.822,102.967,21.822z"/>
								<path fill="#FFFFFF" d="M107.573,19.778c-0.01-0.534,0.414-0.976,0.949-0.986c0.534-0.01,0.976,0.414,0.986,0.949
									c0.01,0.534-0.414,0.976-0.949,0.986c-0.008,0-0.015,0-0.023,0C108.009,20.73,107.578,20.306,107.573,19.778z
									 M107.704,21.915h1.665v8.112h-1.665V21.915z"/>
								<path fill="#FFFFFF" d="M116.542,24.706c-0.151-0.92-0.983-1.571-1.912-1.496c-1.28,0-2.128,1.071-2.128,2.76
									c0,1.727,0.855,2.769,2.144,2.769c0.918,0.091,1.749-0.547,1.897-1.458h1.604c-0.208,1.745-1.767,3.006-3.516,2.846
									c-2.313,0-3.825-1.581-3.825-4.157c0-2.522,1.511-4.157,3.809-4.157c1.762-0.149,3.322,1.134,3.516,2.892H116.542z"/>
							</g>
						</g>
					</g>
					
						<linearGradient id="SVGID_1_" gradientUnits="userSpaceOnUse" x1="21.6478" y1="16.0032" x2="13.8999" y2="27.49" gradientTransform="matrix(1 0 0 -1 0 42)">
						<stop  offset="0" style="stop-color:#22C9FD"/>
						<stop  offset="0.0493" style="stop-color:#2ABEFD"/>
						<stop  offset="0.3892" style="stop-color:#6B6BFF"/>
						<stop  offset="0.5271" style="stop-color:#756AF3"/>
						<stop  offset="0.5591" style="stop-color:#8D68D6"/>
						<stop  offset="0.6057" style="stop-color:#AC65B2"/>
						<stop  offset="0.6305" style="stop-color:#B864A4"/>
						<stop  offset="0.7326" style="stop-color:#D56182"/>
						<stop  offset="0.8377" style="stop-color:#EC5F67"/>
						<stop  offset="0.9304" style="stop-color:#FA5D56"/>
						<stop  offset="1" style="stop-color:#FF5D50"/>
					</linearGradient>
					<path fill="url(#SVGID_1_)" d="M23.264,12.817c-0.007-0.411-0.237-0.693-0.639-0.626c0,0-6.516,1.277-7.275,1.435
						c-0.493,0.103-0.657,0.411-0.647,0.929c-0.002,0.044,0,8.444,0,8.444c0,0.846-0.717,0.645-1.67,0.885
						c-1.619,0.407-1.665,1.123-1.771,1.349c-0.165,0.902,0.045,1.901,1.269,2.194c0.502,0.12,0.816,0.065,1.315-0.031
						c0.806-0.155,1.214-0.55,1.568-1.29c0.166-0.348,0.182-0.929,0.182-1.31c-0.001-2.402-0.001-4.686-0.001-7.088
						c0-0.401,0.111-0.527,0.506-0.606c1.93-0.382,3.871-0.786,5.8-1.165c0.434-0.086,0.481,0.147,0.481,0.586
						c0.001,1.798-0.007,4.74-0.007,5.024c0,1.013-1.898,0.389-3.114,1.513c-0.427,0.418-0.501,1.204-0.368,1.633
						c0.205,0.654,0.629,1.059,1.277,1.198c0.413,0.09,1.774,0.239,2.578-0.74c0.543-0.662,0.504-1.064,0.504-1.669L23.264,12.817z"
						/>
				</g>
			</g>
		</g>
	</g>
</g>
</svg>
