<?xml version="1.0" encoding="UTF-8" standalone="no"?>

<svg version="1.1" xmlns="http://www.w3.org/2000/svg" xmlns:svg="http://www.w3.org/2000/svg" width="1995" height="330" viewBox="0 0 1995 330" >

<path
id="diamond"
style="fill:#6399a8;fill-opacity:1;fill-rule:nonzero;stroke:none;stroke-width:0.13333333"
d="M 293.33727,254.06216 H 10 L 142.31404,10.00001 h 283.3394 L 293.33727,254.06216"
/>

<path
id="b"
style="fill:#201d1c;fill-opacity:1;fill-rule:nonzero;stroke:none;stroke-width:0.13333333"
d="m 509.90763,103.51003 c -31.80171,0 -48.04998,25.01206 -48.04998,62.6914 0,35.61754 17.56996,62.34904 48.04998,62.34904 34.46908,0 47.39114,-31.51989 47.39114,-62.34904 -0.024,-32.19396 -16.26428,-62.6914 -47.40181,-62.6914 M 425.40805,10.00001 h 37.77528 v 90.42616 h 0.66817 c 10.27204,-17.12249 31.81104,-27.745418 51.0321,-27.745418 54.00622,0 80.19446,42.490378 80.19446,94.217688 0,47.5998 -23.19278,92.47478 -73.90213,92.47478 -23.19811,0 -48.05131,-5.81082 -59.32095,-29.11063 h -0.65618 v 24.33117 H 425.40538 V 10.00534 l 0.003,-0.0053"
/>

<path
id="a1"
style="fill:#201d1c;fill-opacity:1;fill-rule:nonzero;stroke:none;stroke-width:0.13333333"
d="m 798.11684,228.31312 c -21.54568,0.24414 -23.7703,0.24414 -25.41341,0.24414 -6.95649,0 -8.95035,-3.76913 -8.95035,-13.36188 v -91.12983 c 0,-37.327509 -35.12258,-51.384798 -68.6034,-51.384798 -37.77795,0 -75.21714,13.354957 -77.85916,58.927868 h 37.7686 c 1.66311,-19.18551 16.56571,-28.09859 37.77662,-28.09859 15.24135,0 35.45867,3.77953 35.45867,23.98588 0,22.95038 -24.1917,19.86386 -51.36553,25.01206 -31.81237,3.75555 -65.94136,10.96943 -65.94136,55.13782 0,34.61013 27.83133,51.72743 58.64611,51.72743 20.21866,0 44.40503,-6.50942 59.32629,-21.55531 2.97012,16.08818 13.91833,21.55531 29.15834,21.55531 l 41.63972,-2.57594 z m -72.06963,-33.32796 c 0,24.6601 -25.85081,33.5757 -42.41784,33.5757 -13.26082,0 -34.8065,-5.15594 -34.8065,-22.61573 0,-20.55952 14.58784,-26.72991 30.83212,-29.4726 16.56169,-3.07986 34.79049,-2.72803 46.39222,-10.60694 z"
/>

<path
id="n"
style="fill:#201d1c;fill-opacity:1;fill-rule:nonzero;stroke:none;stroke-width:0.13333333"
d="m 887.70711,72.680752 c -22.53394,0 -42.08842,11.98761 -53.35805,31.524948 l -0.66018,-0.69567 V 77.482459 h -35.78942 l -0.17837,150.830661 1.64114,28.48416 36.31118,-2.21817 V 150.11445 c 0,-26.04357 16.2416,-46.59908 41.42156,-46.59908 22.20185,0 32.81531,11.9956 33.47016,39.73702 v 111.33192 h 37.79261 V 132.98129 c 0.0733,-39.731692 -23.46618,-60.295208 -60.58929,-60.295208"
/>

<path
id="d"
style="fill:#201d1c;fill-opacity:1;fill-rule:nonzero;stroke:none;stroke-width:0.13333333"
d="m 1058.3934,228.55726 c 33.7969,0 48.0539,-31.86345 48.0539,-62.70099 0,-39.03604 -18.2234,-62.34624 -47.3925,-62.34624 -35.4599,0 -48.0552,32.54713 -48.0552,64.39859 0,30.49064 14.5758,60.64185 47.4005,60.64185 m 84.4942,26.03384 h -35.7948 v -23.97763 h -0.6548 c -9.9386,20.21183 -31.4923,28.76654 -53.0273,28.76654 -54.00622,0 -80.19311,-41.45261 -80.19311,-94.53914 0,-64.05741 36.78831,-92.147998 74.23951,-92.147998 21.5297,0 45.3839,8.22674 56.9857,27.740088 h 0.6735 V 10.008006 h 37.7726 v 244.582034 -0.006"
/>

<path
id="c"
style="fill:#201d1c;fill-opacity:1;fill-rule:nonzero;stroke:none;stroke-width:0.13333333"
d="m 1293.0205,136.74883 c -2.9861,-21.5817 -18.2261,-33.23613 -39.1009,-33.23613 -19.5626,0 -47.0604,10.6256 -47.0604,64.40791 0,29.4634 12.5873,60.64025 45.4012,60.64025 21.8671,0 37.1058,-15.09025 40.7601,-40.44162 h 37.7739 c -6.9604,45.90301 -34.4584,71.25398 -78.534,71.25398 -53.6874,0 -83.1779,-39.38427 -83.1779,-91.45261 0,-53.43582 28.1674,-95.229196 84.5023,-95.229196 39.7637,0 73.5753,20.551521 77.2096,64.058746 h -37.7125 l -0.061,-0.001"
/>

<path
id="a2"
style="fill:#201d1c;fill-opacity:1;fill-rule:nonzero;stroke:none;stroke-width:0.13333333"
d="m 1532.7983,228.31312 c -21.5457,0.24414 -23.7703,0.24414 -25.4134,0.24414 -6.9564,0 -8.9503,-3.76913 -8.9503,-13.36188 v -91.12983 c 0,-37.327509 -35.1226,-51.384798 -68.6034,-51.384798 -37.778,0 -75.2171,13.354957 -77.8592,58.927868 h 37.7686 c 1.6632,-19.18551 16.5657,-28.09859 37.7767,-28.09859 15.2413,0 35.4586,3.77953 35.4586,23.98588 0,22.95038 -24.1917,19.86386 -51.3655,25.01206 -31.8124,3.75555 -65.9414,10.96943 -65.9414,55.13782 0,34.61013 27.8314,51.72743 58.6462,51.72743 20.2186,0 44.405,-6.50942 59.3262,-21.55531 2.9702,16.08818 13.9184,21.55531 29.1584,21.55531 l 41.6396,-2.57594 z m -72.0697,-33.32796 c 0,24.6601 -25.8508,33.5757 -42.4177,33.5757 -13.2609,0 -34.8066,-5.15594 -34.8066,-22.61573 0,-20.55952 14.5878,-26.72991 30.8321,-29.4726 16.5618,-3.07986 34.7906,-2.72803 46.3922,-10.60694 z"
/>

<path
id="m"
style="fill:#201d1c;fill-opacity:1;fill-rule:nonzero;stroke:none;stroke-width:0.13333333"
d="m 1723.8646,72.680752 c -24.8598,0 -41.0908,11.3106 -53.6808,29.461928 -7.6286,-20.201016 -27.1805,-29.461928 -48.066,-29.461928 -27.1671,0 -41.4242,11.98761 -52.6806,29.461928 h -1.0002 V 77.482459 h -35.8094 V 228.31312 l 1.7278,28.48416 36.0549,-2.21817 v -105.155 c 0,-29.45794 17.8981,-45.90874 37.4499,-45.90874 22.8594,0 30.1546,13.00979 30.1546,37.35016 v 113.71878 h 37.77 V 150.79413 c 0,-29.80844 10.9361,-47.2761 36.4629,-47.2761 29.4877,0 31.1416,19.524 31.1416,47.62526 v 103.44008 h 37.7832 V 132.29896 c 0.013,-43.171394 -21.1789,-59.612878 -57.2818,-59.612878"
/>

<path
id="p"
style="fill:#201d1c;fill-opacity:1;fill-rule:nonzero;stroke:none;stroke-width:0.13333333"
d="m 1899.831,103.51003 c -31.8084,0 -48.0527,25.01206 -48.0527,62.6914 0,35.61754 17.5646,62.34904 48.0527,62.34904 34.4623,0 47.3991,-31.51989 47.3991,-62.34904 0,-32.19396 -16.271,-62.6914 -47.3991,-62.6914 m -84.5023,-26.027571 h 35.7961 v 23.977891 h 0.6668 c 10.6028,-20.203692 31.1416,-28.779598 53.014,-28.779598 54.0142,0 80.1945,42.490378 80.1945,94.217688 0,47.5998 -23.1928,92.47478 -73.8862,92.47478 -21.8724,0 -45.4119,-8.21741 -57.3351,-27.72943 h -0.6669 v 88.35622 h -37.7832 V 77.497118 77.482459"
/>

</svg>
